# Blender v2.78 (sub 0) OBJ File: ''
# www.blender.org
o Cube
v 1.000000 -0.892000 -0.892000
v 0.892000 -1.000000 -0.892000
v 0.892000 -0.892000 -1.000000
v 0.994712 -0.925380 -0.892000
v 0.979382 -0.955470 -0.892000
v 0.994712 -0.892000 -0.925380
v 0.988450 -0.926458 -0.926265
v 0.973977 -0.954008 -0.925148
v 0.979382 -0.892000 -0.955470
v 0.973901 -0.925234 -0.954063
v 0.963645 -0.949145 -0.949145
v 0.892000 -0.994712 -0.925380
v 0.892000 -0.979382 -0.955470
v 0.925380 -0.994712 -0.892000
v 0.926265 -0.988450 -0.926458
v 0.925148 -0.973977 -0.954008
v 0.955470 -0.979382 -0.892000
v 0.954063 -0.973901 -0.925234
v 0.949145 -0.963645 -0.949145
v 0.925380 -0.892000 -0.994712
v 0.955470 -0.892000 -0.979382
v 0.892000 -0.925380 -0.994712
v 0.926458 -0.926265 -0.988450
v 0.954008 -0.925148 -0.973977
v 0.892000 -0.955470 -0.979382
v 0.925234 -0.954063 -0.973901
v 0.949145 -0.949145 -0.963645
v 1.000000 -0.892000 0.892000
v 0.892000 -0.892000 1.000000
v 0.892000 -1.000000 0.892000
v 0.994712 -0.892000 0.925380
v 0.979382 -0.892000 0.955470
v 0.994712 -0.925380 0.892000
v 0.988450 -0.926265 0.926458
v 0.973977 -0.925148 0.954008
v 0.979382 -0.955470 0.892000
v 0.973901 -0.954063 0.925234
v 0.963645 -0.949145 0.949145
v 0.892000 -0.925380 0.994712
v 0.892000 -0.955470 0.979382
v 0.925380 -0.892000 0.994712
v 0.926265 -0.926458 0.988450
v 0.925148 -0.954008 0.973977
v 0.955470 -0.892000 0.979382
v 0.954063 -0.925234 0.973901
v 0.949145 -0.949145 0.963645
v 0.925380 -0.994712 0.892000
v 0.955470 -0.979382 0.892000
v 0.892000 -0.994712 0.925380
v 0.926458 -0.988450 0.926265
v 0.954008 -0.973977 0.925148
v 0.892000 -0.979382 0.955470
v 0.925234 -0.973901 0.954063
v 0.949145 -0.963645 0.949145
v -0.892000 -0.892000 1.000000
v -1.000000 -0.892000 0.892000
v -0.892000 -1.000000 0.892000
v -0.925380 -0.892000 0.994712
v -0.955470 -0.892000 0.979381
v -0.892000 -0.925380 0.994712
v -0.926458 -0.926265 0.988450
v -0.954008 -0.925148 0.973977
v -0.892000 -0.955470 0.979381
v -0.925234 -0.954063 0.973901
v -0.949145 -0.949145 0.963644
v -0.994712 -0.925380 0.892000
v -0.979382 -0.955470 0.892000
v -0.994712 -0.892000 0.925380
v -0.988450 -0.926458 0.926265
v -0.973977 -0.954008 0.925148
v -0.979382 -0.892000 0.955470
v -0.973901 -0.925234 0.954063
v -0.963645 -0.949145 0.949145
v -0.892000 -0.994712 0.925380
v -0.892000 -0.979382 0.955470
v -0.925380 -0.994712 0.892000
v -0.926265 -0.988450 0.926458
v -0.925148 -0.973977 0.954007
v -0.955470 -0.979382 0.892000
v -0.954063 -0.973901 0.925234
v -0.949145 -0.963645 0.949145
v -0.892000 -0.892000 -1.000000
v -0.892000 -1.000000 -0.892000
v -1.000000 -0.892000 -0.892000
v -0.892000 -0.925380 -0.994712
v -0.892000 -0.955470 -0.979382
v -0.925380 -0.892000 -0.994712
v -0.926265 -0.926458 -0.988450
v -0.925148 -0.954008 -0.973977
v -0.955470 -0.892000 -0.979382
v -0.954062 -0.925234 -0.973901
v -0.949144 -0.949145 -0.963645
v -0.925380 -0.994712 -0.892000
v -0.955470 -0.979382 -0.892000
v -0.892000 -0.994712 -0.925380
v -0.926458 -0.988450 -0.926265
v -0.954007 -0.973977 -0.925148
v -0.892000 -0.979382 -0.955471
v -0.925233 -0.973901 -0.954063
v -0.949144 -0.963645 -0.949145
v -0.994712 -0.892000 -0.925380
v -0.979381 -0.892000 -0.955471
v -0.994712 -0.925380 -0.892000
v -0.988449 -0.926265 -0.926458
v -0.973977 -0.925148 -0.954008
v -0.979381 -0.955470 -0.892000
v -0.973900 -0.954063 -0.925234
v -0.963644 -0.949145 -0.949145
v 0.892000 0.892000 -0.999999
v 0.892000 1.000000 -0.891999
v 1.000000 0.892000 -0.891999
v 0.892001 0.925380 -0.994711
v 0.892001 0.955470 -0.979381
v 0.925381 0.892000 -0.994712
v 0.926265 0.926458 -0.988449
v 0.925149 0.954008 -0.973977
v 0.955471 0.892000 -0.979381
v 0.954063 0.925234 -0.973900
v 0.949145 0.949145 -0.963644
v 0.925381 0.994712 -0.891999
v 0.955471 0.979382 -0.891999
v 0.892000 0.994712 -0.925379
v 0.926458 0.988450 -0.926264
v 0.954008 0.973977 -0.925148
v 0.892000 0.979382 -0.955470
v 0.925234 0.973901 -0.954062
v 0.949145 0.963645 -0.949144
v 0.994713 0.892000 -0.925379
v 0.979382 0.892000 -0.955470
v 0.994713 0.925380 -0.891999
v 0.988450 0.926265 -0.926457
v 0.973978 0.925148 -0.954007
v 0.979382 0.955470 -0.891999
v 0.973901 0.954063 -0.925233
v 0.963645 0.949145 -0.949144
v 0.891999 0.892000 1.000001
v 0.999999 0.892000 0.892000
v 0.891999 1.000000 0.892000
v 0.925379 0.892000 0.994713
v 0.955470 0.892000 0.979382
v 0.891999 0.925380 0.994713
v 0.926457 0.926265 0.988450
v 0.954007 0.925148 0.973978
v 0.891999 0.955470 0.979382
v 0.925233 0.954063 0.973901
v 0.949144 0.949145 0.963645
v 0.994711 0.925380 0.892000
v 0.979381 0.955470 0.892000
v 0.994711 0.892000 0.925381
v 0.988449 0.926458 0.926265
v 0.973976 0.954008 0.925149
v 0.979381 0.892000 0.955471
v 0.973900 0.925234 0.954063
v 0.963644 0.949145 0.949145
v 0.891999 0.994712 0.925381
v 0.891999 0.979382 0.955471
v 0.925379 0.994712 0.892000
v 0.926264 0.988450 0.926459
v 0.925147 0.973977 0.954008
v 0.955470 0.979382 0.892000
v 0.954062 0.973901 0.925234
v 0.949144 0.963645 0.949145
v -1.000000 0.892000 0.892000
v -0.892000 0.892000 1.000000
v -0.892000 1.000000 0.892000
v -0.994712 0.892000 0.925380
v -0.979382 0.892000 0.955470
v -0.994712 0.925380 0.892000
v -0.988450 0.926265 0.926458
v -0.973977 0.925148 0.954007
v -0.979382 0.955470 0.892000
v -0.973901 0.954063 0.925233
v -0.963645 0.949145 0.949144
v -0.892000 0.925380 0.994712
v -0.892000 0.955470 0.979381
v -0.925380 0.892000 0.994712
v -0.926265 0.926458 0.988449
v -0.925148 0.954008 0.973977
v -0.955471 0.892000 0.979381
v -0.954063 0.925234 0.973900
v -0.949145 0.949145 0.963644
v -0.925380 0.994712 0.892000
v -0.955471 0.979382 0.892000
v -0.892000 0.994712 0.925380
v -0.926458 0.988450 0.926265
v -0.954008 0.973977 0.925148
v -0.892000 0.979382 0.955470
v -0.925234 0.973901 0.954062
v -0.949145 0.963645 0.949144
v -1.000000 0.892000 -0.892000
v -0.892000 1.000000 -0.892000
v -0.892000 0.892000 -1.000000
v -0.994712 0.925380 -0.892000
v -0.979381 0.955470 -0.892000
v -0.994712 0.892000 -0.925380
v -0.988450 0.926458 -0.926265
v -0.973977 0.954008 -0.925148
v -0.979381 0.892000 -0.955470
v -0.973901 0.925234 -0.954063
v -0.963644 0.949145 -0.949145
v -0.892000 0.994712 -0.925380
v -0.892000 0.979382 -0.955470
v -0.925380 0.994712 -0.892000
v -0.926265 0.988450 -0.926458
v -0.925148 0.973977 -0.954008
v -0.955470 0.979382 -0.892000
v -0.954063 0.973901 -0.925234
v -0.949145 0.963645 -0.949145
v -0.925380 0.892000 -0.994712
v -0.955470 0.892000 -0.979382
v -0.892000 0.925380 -0.994712
v -0.926458 0.926265 -0.988450
v -0.954007 0.925148 -0.973977
v -0.892000 0.955470 -0.979382
v -0.925234 0.954063 -0.973901
v -0.949145 0.949145 -0.963645
vn 0.0779 -0.0779 -0.9939
vn -0.0779 0.0779 -0.9939
vn 0.0779 0.0779 -0.9939
vn 0.0779 0.0779 0.9939
vn -0.0779 -0.0779 0.9939
vn 0.0779 -0.0779 0.9939
vn -0.9939 0.0779 0.0779
vn -0.9939 -0.0779 -0.0779
vn -0.9939 -0.0779 0.0779
vn -0.0779 0.9939 -0.0779
vn 0.0779 0.9939 0.0779
vn 0.0779 0.9939 -0.0779
vn 0.9939 0.0779 -0.0779
vn 0.9939 -0.0779 0.0779
vn 0.9939 -0.0779 -0.0779
vn 0.9486 -0.3064 -0.0783
vn 0.9485 -0.0787 -0.3066
vn 0.8071 -0.5855 -0.0754
vn 0.8992 -0.3098 -0.3089
vn 0.5853 -0.8072 -0.0757
vn 0.7687 -0.5718 -0.2866
vn 0.8072 -0.0757 -0.5853
vn 0.6844 -0.5156 -0.5154
vn 0.7685 -0.2870 -0.5719
vn 0.5719 -0.7685 -0.2870
vn 0.0783 -0.9486 -0.3064
vn 0.3066 -0.9485 -0.0787
vn 0.0779 -0.9939 -0.0779
vn 0.0754 -0.8071 -0.5855
vn 0.3089 -0.8992 -0.3098
vn 0.0757 -0.5853 -0.8072
vn 0.2866 -0.7687 -0.5718
vn 0.5154 -0.6844 -0.5156
vn 0.2870 -0.5719 -0.7685
vn 0.3064 -0.0783 -0.9486
vn 0.0787 -0.3066 -0.9485
vn 0.5855 -0.0754 -0.8071
vn 0.3098 -0.3089 -0.8992
vn 0.5718 -0.2866 -0.7687
vn 0.5156 -0.5154 -0.6844
vn 0.9486 -0.0783 0.3064
vn 0.9485 -0.3066 0.0787
vn 0.8071 -0.0754 0.5855
vn 0.8992 -0.3089 0.3098
vn 0.5853 -0.0757 0.8072
vn 0.7687 -0.2866 0.5718
vn 0.8072 -0.5853 0.0757
vn 0.6844 -0.5154 0.5156
vn 0.7685 -0.5719 0.2870
vn 0.5719 -0.2870 0.7685
vn 0.0783 -0.3064 0.9486
vn 0.3066 -0.0787 0.9485
vn 0.0754 -0.5855 0.8071
vn 0.3089 -0.3098 0.8992
vn 0.0757 -0.8072 0.5853
vn 0.2866 -0.5718 0.7687
vn 0.5154 -0.5156 0.6844
vn 0.2870 -0.7685 0.5719
vn 0.3064 -0.9486 0.0783
vn 0.0787 -0.9485 0.3066
vn 0.0779 -0.9939 0.0779
vn 0.5855 -0.8071 0.0754
vn 0.3098 -0.8992 0.3089
vn 0.5718 -0.7687 0.2866
vn 0.5156 -0.6844 0.5154
vn -0.3064 -0.0783 0.9486
vn -0.0787 -0.3066 0.9485
vn -0.5855 -0.0754 0.8071
vn -0.3098 -0.3089 0.8992
vn -0.8072 -0.0757 0.5853
vn -0.5718 -0.2866 0.7687
vn -0.0757 -0.5853 0.8072
vn -0.5156 -0.5154 0.6844
vn -0.2870 -0.5719 0.7685
vn -0.7685 -0.2870 0.5719
vn -0.9486 -0.3064 0.0783
vn -0.9485 -0.0787 0.3066
vn -0.8071 -0.5855 0.0754
vn -0.8992 -0.3098 0.3089
vn -0.5853 -0.8072 0.0757
vn -0.7687 -0.5718 0.2866
vn -0.6844 -0.5156 0.5154
vn -0.5719 -0.7685 0.2870
vn -0.0783 -0.9486 0.3064
vn -0.3066 -0.9485 0.0787
vn -0.0779 -0.9939 0.0779
vn -0.0754 -0.8071 0.5855
vn -0.3089 -0.8992 0.3098
vn -0.2866 -0.7687 0.5718
vn -0.5154 -0.6844 0.5156
vn -0.0783 -0.3064 -0.9486
vn -0.3066 -0.0787 -0.9485
vn -0.0779 -0.0779 -0.9939
vn -0.0754 -0.5855 -0.8071
vn -0.3089 -0.3098 -0.8992
vn -0.0757 -0.8072 -0.5853
vn -0.2866 -0.5718 -0.7687
vn -0.5853 -0.0757 -0.8072
vn -0.5154 -0.5156 -0.6844
vn -0.5719 -0.2870 -0.7685
vn -0.2870 -0.7685 -0.5719
vn -0.3064 -0.9486 -0.0783
vn -0.0787 -0.9485 -0.3066
vn -0.0779 -0.9939 -0.0779
vn -0.5855 -0.8071 -0.0754
vn -0.3098 -0.8992 -0.3089
vn -0.8072 -0.5853 -0.0757
vn -0.5718 -0.7687 -0.2866
vn -0.5156 -0.6844 -0.5154
vn -0.7685 -0.5719 -0.2870
vn -0.9486 -0.0783 -0.3064
vn -0.9485 -0.3066 -0.0787
vn -0.8071 -0.0754 -0.5855
vn -0.8992 -0.3089 -0.3098
vn -0.7687 -0.2866 -0.5718
vn -0.6844 -0.5154 -0.5156
vn 0.0783 0.3064 -0.9486
vn 0.3066 0.0787 -0.9485
vn 0.0754 0.5855 -0.8071
vn 0.3089 0.3098 -0.8992
vn 0.0757 0.8072 -0.5853
vn 0.2866 0.5718 -0.7687
vn 0.5853 0.0757 -0.8072
vn 0.5154 0.5156 -0.6844
vn 0.5719 0.2870 -0.7685
vn 0.2870 0.7685 -0.5719
vn 0.3064 0.9486 -0.0783
vn 0.0787 0.9485 -0.3066
vn 0.5855 0.8071 -0.0754
vn 0.3098 0.8992 -0.3089
vn 0.8072 0.5853 -0.0757
vn 0.5718 0.7687 -0.2866
vn 0.5156 0.6844 -0.5154
vn 0.7685 0.5719 -0.2870
vn 0.9486 0.0783 -0.3064
vn 0.9485 0.3066 -0.0787
vn 0.8071 0.0754 -0.5855
vn 0.8992 0.3089 -0.3098
vn 0.7687 0.2866 -0.5718
vn 0.6844 0.5154 -0.5156
vn 0.3064 0.0783 0.9486
vn 0.0787 0.3066 0.9485
vn 0.5855 0.0754 0.8071
vn 0.3098 0.3089 0.8992
vn 0.8072 0.0757 0.5853
vn 0.5718 0.2866 0.7687
vn 0.0757 0.5853 0.8072
vn 0.5156 0.5154 0.6844
vn 0.2870 0.5719 0.7685
vn 0.7685 0.2870 0.5719
vn 0.9486 0.3064 0.0783
vn 0.9485 0.0787 0.3066
vn 0.9939 0.0779 0.0779
vn 0.8071 0.5855 0.0754
vn 0.8992 0.3098 0.3089
vn 0.5853 0.8072 0.0757
vn 0.7687 0.5718 0.2866
vn 0.6844 0.5156 0.5154
vn 0.5719 0.7685 0.2870
vn 0.0783 0.9486 0.3064
vn 0.3066 0.9485 0.0787
vn 0.0754 0.8071 0.5855
vn 0.3089 0.8992 0.3098
vn 0.2866 0.7687 0.5718
vn 0.5154 0.6844 0.5156
vn -0.9486 0.0783 0.3064
vn -0.9485 0.3066 0.0787
vn -0.8071 0.0754 0.5855
vn -0.8992 0.3089 0.3098
vn -0.5853 0.0757 0.8072
vn -0.7687 0.2866 0.5718
vn -0.8072 0.5853 0.0757
vn -0.6844 0.5154 0.5156
vn -0.7685 0.5719 0.2870
vn -0.5719 0.2870 0.7685
vn -0.0783 0.3064 0.9486
vn -0.3066 0.0787 0.9485
vn -0.0779 0.0779 0.9939
vn -0.0754 0.5855 0.8071
vn -0.3089 0.3098 0.8992
vn -0.0757 0.8072 0.5853
vn -0.2866 0.5718 0.7687
vn -0.5154 0.5156 0.6844
vn -0.2870 0.7685 0.5719
vn -0.3064 0.9486 0.0783
vn -0.0787 0.9485 0.3066
vn -0.0779 0.9939 0.0779
vn -0.5855 0.8071 0.0754
vn -0.3098 0.8992 0.3089
vn -0.5718 0.7687 0.2866
vn -0.5156 0.6844 0.5154
vn -0.9486 0.3064 -0.0783
vn -0.9485 0.0787 -0.3066
vn -0.9939 0.0779 -0.0779
vn -0.8071 0.5855 -0.0754
vn -0.8992 0.3098 -0.3089
vn -0.5853 0.8072 -0.0757
vn -0.7687 0.5718 -0.2866
vn -0.8072 0.0757 -0.5853
vn -0.6844 0.5156 -0.5154
vn -0.7685 0.2870 -0.5719
vn -0.5719 0.7685 -0.2870
vn -0.0783 0.9486 -0.3064
vn -0.3066 0.9485 -0.0787
vn -0.0754 0.8071 -0.5855
vn -0.3089 0.8992 -0.3098
vn -0.0757 0.5853 -0.8072
vn -0.2866 0.7687 -0.5718
vn -0.5154 0.6844 -0.5156
vn -0.2870 0.5719 -0.7685
vn -0.3064 0.0783 -0.9486
vn -0.0787 0.3066 -0.9485
vn -0.5855 0.0754 -0.8071
vn -0.3098 0.3089 -0.8992
vn -0.5718 0.2866 -0.7687
vn -0.5156 0.5154 -0.6844
s 1
f 3//1 192//2 109//3
f 136//4 55//5 29//6
f 163//7 84//8 56//9
f 191//10 138//11 110//12
f 111//13 28//14 1//15
f 4//16 6//17 1//15
f 5//18 7//19 4//16
f 17//20 8//21 5//18
f 7//19 9//22 6//17
f 7//19 11//23 10//24
f 18//25 11//23 8//21
f 12//26 14//27 2//28
f 13//29 15//30 12//26
f 25//31 16//32 13//29
f 15//30 17//20 14//27
f 15//30 19//33 18//25
f 26//34 19//33 16//32
f 20//35 22//36 3//1
f 21//37 23//38 20//35
f 9//22 24//39 21//37
f 23//38 25//31 22//36
f 23//38 27//40 26//34
f 10//24 27//40 24//39
f 11//23 19//33 27//40
f 31//41 33//42 28//14
f 32//43 34//44 31//41
f 44//45 35//46 32//43
f 34//44 36//47 33//42
f 34//44 38//48 37//49
f 45//50 38//48 35//46
f 39//51 41//52 29//6
f 40//53 42//54 39//51
f 52//55 43//56 40//53
f 42//54 44//45 41//52
f 42//54 46//57 45//50
f 53//58 46//57 43//56
f 47//59 49//60 30//61
f 48//62 50//63 47//59
f 36//47 51//64 48//62
f 50//63 52//55 49//60
f 50//63 54//65 53//58
f 37//49 54//65 51//64
f 38//48 46//57 54//65
f 58//66 60//67 55//5
f 59//68 61//69 58//66
f 71//70 62//71 59//68
f 61//69 63//72 60//67
f 61//69 65//73 64//74
f 72//75 65//73 62//71
f 66//76 68//77 56//9
f 67//78 69//79 66//76
f 79//80 70//81 67//78
f 69//79 71//70 68//77
f 69//79 73//82 72//75
f 80//83 73//82 70//81
f 74//84 76//85 57//86
f 75//87 77//88 74//84
f 63//72 78//89 75//87
f 77//88 79//80 76//85
f 77//88 81//90 80//83
f 64//74 81//90 78//89
f 65//73 73//82 81//90
f 85//91 87//92 82//93
f 86//94 88//95 85//91
f 98//96 89//97 86//94
f 88//95 90//98 87//92
f 88//95 92//99 91//100
f 99//101 92//99 89//97
f 93//102 95//103 83//104
f 94//105 96//106 93//102
f 106//107 97//108 94//105
f 96//106 98//96 95//103
f 96//106 100//109 99//101
f 107//110 100//109 97//108
f 101//111 103//112 84//8
f 102//113 104//114 101//111
f 90//98 105//115 102//113
f 104//114 106//107 103//112
f 104//114 108//116 107//110
f 91//100 108//116 105//115
f 92//99 100//109 108//116
f 112//117 114//118 109//3
f 113//119 115//120 112//117
f 125//121 116//122 113//119
f 115//120 117//123 114//118
f 115//120 119//124 118//125
f 126//126 119//124 116//122
f 120//127 122//128 110//12
f 121//129 123//130 120//127
f 133//131 124//132 121//129
f 123//130 125//121 122//128
f 123//130 127//133 126//126
f 134//134 127//133 124//132
f 128//135 130//136 111//13
f 129//137 131//138 128//135
f 117//123 132//139 129//137
f 131//138 133//131 130//136
f 131//138 135//140 134//134
f 118//125 135//140 132//139
f 119//124 127//133 135//140
f 139//141 141//142 136//4
f 140//143 142//144 139//141
f 152//145 143//146 140//143
f 142//144 144//147 141//142
f 142//144 146//148 145//149
f 153//150 146//148 143//146
f 147//151 149//152 137//153
f 148//154 150//155 147//151
f 160//156 151//157 148//154
f 150//155 152//145 149//152
f 150//155 154//158 153//150
f 161//159 154//158 151//157
f 155//160 157//161 138//11
f 156//162 158//163 155//160
f 144//147 159//164 156//162
f 158//163 160//156 157//161
f 158//163 162//165 161//159
f 145//149 162//165 159//164
f 146//148 154//158 162//165
f 166//166 168//167 163//7
f 167//168 169//169 166//166
f 179//170 170//171 167//168
f 169//169 171//172 168//167
f 169//169 173//173 172//174
f 180//175 173//173 170//171
f 174//176 176//177 164//178
f 175//179 177//180 174//176
f 187//181 178//182 175//179
f 177//180 179//170 176//177
f 177//180 181//183 180//175
f 188//184 181//183 178//182
f 182//185 184//186 165//187
f 183//188 185//189 182//185
f 171//172 186//190 183//188
f 185//189 187//181 184//186
f 185//189 189//191 188//184
f 172//174 189//191 186//190
f 173//173 181//183 189//191
f 193//192 195//193 190//194
f 194//195 196//196 193//192
f 206//197 197//198 194//195
f 196//196 198//199 195//193
f 196//196 200//200 199//201
f 207//202 200//200 197//198
f 201//203 203//204 191//10
f 202//205 204//206 201//203
f 214//207 205//208 202//205
f 204//206 206//197 203//204
f 204//206 208//209 207//202
f 215//210 208//209 205//208
f 209//211 211//212 192//2
f 210//213 212//214 209//211
f 198//199 213//215 210//213
f 212//214 214//207 211//212
f 212//214 216//216 215//210
f 199//201 216//216 213//215
f 200//200 208//209 216//216
f 28//14 4//16 1//15
f 33//42 5//18 4//16
f 36//47 17//20 5//18
f 48//62 14//27 17//20
f 47//59 2//28 14//27
f 83//104 12//26 2//28
f 95//103 13//29 12//26
f 98//96 25//31 13//29
f 86//94 22//36 25//31
f 22//36 82//93 3//1
f 109//3 20//35 3//1
f 114//118 21//37 20//35
f 117//123 9//22 21//37
f 129//137 6//17 9//22
f 128//135 1//15 6//17
f 55//5 39//51 29//6
f 39//51 63//72 40//53
f 63//72 52//55 40//53
f 75//87 49//60 52//55
f 74//84 30//61 49//60
f 137//153 31//41 28//14
f 149//152 32//43 31//41
f 152//145 44//45 32//43
f 44//45 139//141 41//52
f 139//141 29//6 41//52
f 84//8 66//76 56//9
f 103//112 67//78 66//76
f 106//107 79//80 67//78
f 94//105 76//85 79//80
f 93//102 57//86 76//85
f 164//178 58//66 55//5
f 176//177 59//68 58//66
f 179//170 71//70 59//68
f 167//168 68//77 71//70
f 166//166 56//9 68//77
f 190//194 101//111 84//8
f 195//193 102//113 101//111
f 198//199 90//98 102//113
f 210//213 87//92 90//98
f 209//211 82//93 87//92
f 138//11 120//127 110//12
f 157//161 121//129 120//127
f 160//156 133//131 121//129
f 148//154 130//136 133//131
f 147//151 111//13 130//136
f 192//2 112//117 109//3
f 211//212 113//119 112//117
f 214//207 125//121 113//119
f 202//205 122//128 125//121
f 201//203 110//12 122//128
f 165//187 155//160 138//11
f 184//186 156//162 155//160
f 187//181 144//147 156//162
f 175//179 141//142 144//147
f 174//176 136//4 141//142
f 191//10 182//185 165//187
f 203//204 183//188 182//185
f 206//197 171//172 183//188
f 194//195 168//167 171//172
f 193//192 163//7 168//167
f 30//61 83//104 2//28
f 3//1 82//93 192//2
f 136//4 164//178 55//5
f 163//7 190//194 84//8
f 191//10 165//187 138//11
f 111//13 137//153 28//14
f 4//16 7//19 6//17
f 5//18 8//21 7//19
f 17//20 18//25 8//21
f 7//19 10//24 9//22
f 7//19 8//21 11//23
f 18//25 19//33 11//23
f 12//26 15//30 14//27
f 13//29 16//32 15//30
f 25//31 26//34 16//32
f 15//30 18//25 17//20
f 15//30 16//32 19//33
f 26//34 27//40 19//33
f 20//35 23//38 22//36
f 21//37 24//39 23//38
f 9//22 10//24 24//39
f 23//38 26//34 25//31
f 23//38 24//39 27//40
f 10//24 11//23 27//40
f 31//41 34//44 33//42
f 32//43 35//46 34//44
f 44//45 45//50 35//46
f 34//44 37//49 36//47
f 34//44 35//46 38//48
f 45//50 46//57 38//48
f 39//51 42//54 41//52
f 40//53 43//56 42//54
f 52//55 53//58 43//56
f 42//54 45//50 44//45
f 42//54 43//56 46//57
f 53//58 54//65 46//57
f 47//59 50//63 49//60
f 48//62 51//64 50//63
f 36//47 37//49 51//64
f 50//63 53//58 52//55
f 50//63 51//64 54//65
f 37//49 38//48 54//65
f 58//66 61//69 60//67
f 59//68 62//71 61//69
f 71//70 72//75 62//71
f 61//69 64//74 63//72
f 61//69 62//71 65//73
f 72//75 73//82 65//73
f 66//76 69//79 68//77
f 67//78 70//81 69//79
f 79//80 80//83 70//81
f 69//79 72//75 71//70
f 69//79 70//81 73//82
f 80//83 81//90 73//82
f 74//84 77//88 76//85
f 75//87 78//89 77//88
f 63//72 64//74 78//89
f 77//88 80//83 79//80
f 77//88 78//89 81//90
f 64//74 65//73 81//90
f 85//91 88//95 87//92
f 86//94 89//97 88//95
f 98//96 99//101 89//97
f 88//95 91//100 90//98
f 88//95 89//97 92//99
f 99//101 100//109 92//99
f 93//102 96//106 95//103
f 94//105 97//108 96//106
f 106//107 107//110 97//108
f 96//106 99//101 98//96
f 96//106 97//108 100//109
f 107//110 108//116 100//109
f 101//111 104//114 103//112
f 102//113 105//115 104//114
f 90//98 91//100 105//115
f 104//114 107//110 106//107
f 104//114 105//115 108//116
f 91//100 92//99 108//116
f 112//117 115//120 114//118
f 113//119 116//122 115//120
f 125//121 126//126 116//122
f 115//120 118//125 117//123
f 115//120 116//122 119//124
f 126//126 127//133 119//124
f 120//127 123//130 122//128
f 121//129 124//132 123//130
f 133//131 134//134 124//132
f 123//130 126//126 125//121
f 123//130 124//132 127//133
f 134//134 135//140 127//133
f 128//135 131//138 130//136
f 129//137 132//139 131//138
f 117//123 118//125 132//139
f 131//138 134//134 133//131
f 131//138 132//139 135//140
f 118//125 119//124 135//140
f 139//141 142//144 141//142
f 140//143 143//146 142//144
f 152//145 153//150 143//146
f 142//144 145//149 144//147
f 142//144 143//146 146//148
f 153//150 154//158 146//148
f 147//151 150//155 149//152
f 148//154 151//157 150//155
f 160//156 161//159 151//157
f 150//155 153//150 152//145
f 150//155 151//157 154//158
f 161//159 162//165 154//158
f 155//160 158//163 157//161
f 156//162 159//164 158//163
f 144//147 145//149 159//164
f 158//163 161//159 160//156
f 158//163 159//164 162//165
f 145//149 146//148 162//165
f 166//166 169//169 168//167
f 167//168 170//171 169//169
f 179//170 180//175 170//171
f 169//169 172//174 171//172
f 169//169 170//171 173//173
f 180//175 181//183 173//173
f 174//176 177//180 176//177
f 175//179 178//182 177//180
f 187//181 188//184 178//182
f 177//180 180//175 179//170
f 177//180 178//182 181//183
f 188//184 189//191 181//183
f 182//185 185//189 184//186
f 183//188 186//190 185//189
f 171//172 172//174 186//190
f 185//189 188//184 187//181
f 185//189 186//190 189//191
f 172//174 173//173 189//191
f 193//192 196//196 195//193
f 194//195 197//198 196//196
f 206//197 207//202 197//198
f 196//196 199//201 198//199
f 196//196 197//198 200//200
f 207//202 208//209 200//200
f 201//203 204//206 203//204
f 202//205 205//208 204//206
f 214//207 215//210 205//208
f 204//206 207//202 206//197
f 204//206 205//208 208//209
f 215//210 216//216 208//209
f 209//211 212//214 211//212
f 210//213 213//215 212//214
f 198//199 199//201 213//215
f 212//214 215//210 214//207
f 212//214 213//215 216//216
f 199//201 200//200 216//216
f 28//14 33//42 4//16
f 33//42 36//47 5//18
f 36//47 48//62 17//20
f 48//62 47//59 14//27
f 47//59 30//61 2//28
f 83//104 95//103 12//26
f 95//103 98//96 13//29
f 98//96 86//94 25//31
f 86//94 85//91 22//36
f 22//36 85//91 82//93
f 109//3 114//118 20//35
f 114//118 117//123 21//37
f 117//123 129//137 9//22
f 129//137 128//135 6//17
f 128//135 111//13 1//15
f 55//5 60//67 39//51
f 39//51 60//67 63//72
f 63//72 75//87 52//55
f 75//87 74//84 49//60
f 74//84 57//86 30//61
f 137//153 149//152 31//41
f 149//152 152//145 32//43
f 152//145 140//143 44//45
f 44//45 140//143 139//141
f 139//141 136//4 29//6
f 84//8 103//112 66//76
f 103//112 106//107 67//78
f 106//107 94//105 79//80
f 94//105 93//102 76//85
f 93//102 83//104 57//86
f 164//178 176//177 58//66
f 176//177 179//170 59//68
f 179//170 167//168 71//70
f 167//168 166//166 68//77
f 166//166 163//7 56//9
f 190//194 195//193 101//111
f 195//193 198//199 102//113
f 198//199 210//213 90//98
f 210//213 209//211 87//92
f 209//211 192//2 82//93
f 138//11 157//161 120//127
f 157//161 160//156 121//129
f 160//156 148//154 133//131
f 148//154 147//151 130//136
f 147//151 137//153 111//13
f 192//2 211//212 112//117
f 211//212 214//207 113//119
f 214//207 202//205 125//121
f 202//205 201//203 122//128
f 201//203 191//10 110//12
f 165//187 184//186 155//160
f 184//186 187//181 156//162
f 187//181 175//179 144//147
f 175//179 174//176 141//142
f 174//176 164//178 136//4
f 191//10 203//204 182//185
f 203//204 206//197 183//188
f 206//197 194//195 171//172
f 194//195 193//192 168//167
f 193//192 190//194 163//7
f 30//61 57//86 83//104
